<svg xmlns="http://www.w3.org/2000/svg" xmlns:xlink="http://www.w3.org/1999/xlink" width="500" zoomAndPan="magnify" viewBox="0 0 375 374.999991" height="500" preserveAspectRatio="xMidYMid meet" version="1.0"><defs><clipPath id="1cb75ef260"><path d="M 206 37.5 L 249 37.5 L 249 314 L 206 314 Z M 206 37.5 " clip-rule="nonzero"/></clipPath><clipPath id="380918dd03"><path d="M 44.589844 63 L 284 63 L 284 337.5 L 44.589844 337.5 Z M 44.589844 63 " clip-rule="nonzero"/></clipPath><clipPath id="65db1779bc"><path d="M 52 63 L 330.339844 63 L 330.339844 292 L 52 292 Z M 52 63 " clip-rule="nonzero"/></clipPath></defs><path fill="#5bc0be" d="M 121.585938 208.078125 L 121.585938 313.800781 L 90.386719 295.800781 L 83.605469 291.898438 L 80.246094 289.921875 L 80.246094 208.078125 Z M 121.585938 208.078125 " fill-opacity="1" fill-rule="nonzero"/><path fill="#5bc0be" d="M 143.425781 141.480469 L 184.824219 141.480469 L 184.824219 324.839844 L 143.425781 324.839844 Z M 143.425781 141.480469 " fill-opacity="1" fill-rule="nonzero"/><g clip-path="url(#1cb75ef260)"><path fill="#5bc0be" d="M 248.003906 37.5 L 248.003906 289.199219 L 227.304688 301.5 L 206.605469 313.859375 L 206.605469 37.5 Z M 248.003906 37.5 " fill-opacity="1" fill-rule="nonzero"/></g><g clip-path="url(#380918dd03)"><path fill="#3a506b" d="M 280.585938 130.140625 L 279.863281 129.71875 L 274.34375 126.539062 C 272.304688 129.421875 270.023438 132.480469 267.566406 135.71875 L 272.066406 138.359375 L 272.066406 180.359375 C 276.144531 175.980469 279.925781 171.660156 283.40625 167.578125 L 283.40625 135.121094 C 283.40625 133.019531 282.324219 131.160156 280.585938 130.140625 Z M 276.625 184.859375 C 275.125 186.421875 273.625 188.039062 272.066406 189.660156 L 272.066406 262.980469 L 253.945312 273.421875 L 248.003906 276.839844 L 206.605469 300.71875 L 200.664062 304.140625 L 184.824219 313.320312 L 164.964844 324.78125 L 164.183594 325.261719 L 163.40625 324.78125 L 143.484375 313.261719 L 121.644531 300.660156 L 105.324219 291.300781 L 98.664062 287.460938 L 92.183594 283.738281 L 80.246094 276.839844 L 74.066406 273.238281 L 67.34375 269.339844 L 60.804688 265.558594 L 56.183594 262.921875 L 56.183594 138.300781 L 164.125 76.019531 L 200.664062 97.140625 L 200.664062 84 L 166.945312 64.558594 C 165.207031 63.539062 163.046875 63.539062 161.304688 64.558594 L 47.664062 130.140625 C 45.925781 131.160156 44.84375 133.019531 44.84375 135.058594 L 44.84375 266.21875 C 44.84375 268.261719 45.925781 270.121094 47.664062 271.140625 L 52.046875 273.660156 L 58.824219 277.621094 L 75.804688 287.398438 L 77.003906 288.058594 L 80.246094 289.921875 L 83.605469 291.839844 L 90.386719 295.738281 L 121.585938 313.800781 L 161.304688 336.71875 C 162.207031 337.199219 163.164062 337.5 164.125 337.5 C 165.085938 337.5 166.105469 337.261719 166.945312 336.71875 L 206.605469 313.859375 L 230.726562 299.941406 L 247.945312 289.980469 L 253.886719 286.558594 L 280.523438 271.199219 C 282.265625 270.179688 283.34375 268.320312 283.34375 266.28125 L 283.34375 177.359375 C 281.246094 179.820312 278.964844 182.339844 276.625 184.859375 Z M 276.625 184.859375 " fill-opacity="1" fill-rule="nonzero"/></g><g clip-path="url(#65db1779bc)"><path fill="#3a506b" d="M 330.144531 130.140625 L 315.386719 122.21875 C 312.925781 126.238281 303.085938 144.179688 283.40625 167.519531 C 279.925781 171.660156 276.144531 175.921875 272.066406 180.300781 C 264.984375 187.921875 257.003906 195.839844 248.003906 203.941406 C 236.066406 214.621094 222.324219 225.539062 206.605469 236.101562 C 199.707031 240.71875 192.445312 245.339844 184.765625 249.78125 C 172.046875 257.160156 158.304688 264.238281 143.363281 270.78125 C 136.34375 273.839844 129.085938 276.839844 121.523438 279.601562 C 114.144531 282.359375 106.464844 285 98.546875 287.460938 C 93.625 289.019531 88.644531 290.460938 83.546875 291.898438 L 80.183594 289.980469 L 76.945312 288.121094 L 75.746094 287.460938 L 58.765625 277.679688 L 52.046875 273.660156 C 52.765625 273.480469 53.546875 273.300781 54.265625 273.058594 C 58.707031 271.859375 63.023438 270.660156 67.34375 269.398438 C 71.726562 268.078125 76.046875 266.761719 80.246094 265.320312 C 94.945312 260.460938 108.683594 255.058594 121.644531 249.238281 C 129.207031 245.820312 136.464844 242.28125 143.484375 238.621094 C 158.605469 230.699219 172.34375 222.300781 184.886719 213.71875 C 192.625 208.378906 199.886719 202.921875 206.726562 197.519531 C 223.164062 184.378906 236.84375 171.179688 248.125 158.941406 C 255.746094 150.601562 262.226562 142.800781 267.683594 135.71875 C 270.144531 132.480469 272.425781 129.421875 274.464844 126.539062 C 279.746094 119.160156 283.644531 112.980469 286.285156 108.660156 C 286.644531 108.121094 286.945312 107.578125 287.246094 107.039062 L 281.90625 104.160156 L 277.585938 101.878906 L 271.226562 98.460938 L 272.964844 97.378906 L 323.84375 65.820312 L 327.984375 63.238281 L 328.226562 70.441406 Z M 330.144531 130.140625 " fill-opacity="1" fill-rule="nonzero"/></g></svg>